<svg xmlns="http://www.w3.org/2000/svg" viewBox="0 0 397.94 178.96"><defs><style>.cls-1{fill:#548fb0;}.cls-2{fill:#67a8c9;}.cls-3{fill:#82c3e3;}.cls-4{fill:#437797;}.cls-5{fill:#96cfed;}</style></defs><title>Ativo 1</title><g id="Camada_2" data-name="Camada 2"><g id="Layer_1" data-name="Layer 1"><path class="cls-1" d="M65.41,153.13c7.7,0,12.34-3.06,12.34-10s-4.64-9.9-12.34-9.9H0v-8.92H64.92c13,0,21.64,6,21.64,19.19s-8.68,19.07-21.64,19.07H0v-9.41Z"/><path class="cls-2" d="M37.9,84.42h8.56v20.91H76.9V79.66h8.68v35.21H0V79.66H8.68v25.67H37.9Z"/><path class="cls-2" d="M0,51.79C0,38.34,6.85,32.71,19.56,32.71h7c9.41,0,15.28,3.3,17.6,10.64C46.46,35.53,52.81,32.59,62,32.59H75.31c3.79,0,7.33-.12,10.27-1.71v9.66c-2.45,1.1-4.65,1.59-10.39,1.59H61.74C52.08,42.13,49,46.65,49,54.6v6.72H85.58v9.54H0Zm40.34,2.44c0-7.58-2.44-12.1-11.73-12.1H20.42c-7.71,0-11.74,2.81-11.74,9.9v9.29H40.34Z"/><path class="cls-3" d="M76.9,25.14c.12-1.59.12-3.3.12-4.77-.37-6.24-3.3-10-12-10H0V.93H64.43c16,0,21,8,21.27,18.22a49.4,49.4,0,0,1-.12,6Z"/><path class="cls-4" d="M119.43,80.69h-8.57L97.6,17V80.81H89.82V.8h12.46l13.15,63.89L128.11.8h12.46v80h-8.46V16.46Z"/><path class="cls-1" d="M149,20.12C149,7.89,155.09,0,167.32,0s18.4,7.89,18.4,20.12V61.49c0,12.12-6.06,20.12-18.4,20.12S149,73.61,149,61.49ZM157.83,62c0,7.31,3.09,11.54,9.49,11.54S176.8,69.26,176.8,62V19.66c0-7.2-3-11.54-9.48-11.54s-9.49,4.34-9.49,11.54Z"/><path class="cls-2" d="M228.81,20v2.17h-8.46V19.54c0-7.2-2.75-11.42-9.15-11.42s-9.14,4.22-9.14,11.31c0,18,26.86,19.66,26.86,42.17,0,12.12-5.83,20-18.06,20s-17.94-7.89-17.94-20V57h8.34v5c0,7.2,3,11.43,9.37,11.43S220,69.26,220,62.06c0-17.83-26.75-19.54-26.75-42.06C193.26,7.66,199,0,211,0S228.81,7.89,228.81,20Z"/><path class="cls-2" d="M248.35,80.81V8.92H233.61V.8H272V8.92H257.26V80.81Z"/><path class="cls-3" d="M296,.8c12.57,0,17.83,6.4,17.83,18.29V25.6c0,8.8-3.09,14.29-9.94,16.46C311.21,44.23,314,50.18,314,58.75V71.21c0,3.54.12,6.85,1.6,9.6h-9c-1-2.29-1.48-4.35-1.48-9.72V58.52c0-9-4.23-11.89-11.66-11.89h-6.29V80.81h-8.91V.8Zm-2.29,37.72c7.09,0,11.32-2.29,11.32-11V19.89c0-7.2-2.63-11-9.26-11h-8.69v29.6Z"/><path class="cls-5" d="M332.24,64.69l-3.09,16.12h-8.22L336.24.8h12.92l15.31,80h-8.91l-3.09-16.12ZM333.38,57h17.83l-9-46.17Z"/><path class="cls-3" d="M371.45,60.85c4.41-.85,6.95,1.43,7.79,5.8L382,80.93c.83,4.33-.68,7.39-5.09,8.24l-6.63,1.28-5.45-28.32Zm4.86,25.46c2.26-.44,3.08-2.06,2.59-4.65l-2.81-14.57c-.5-2.59-1.86-3.79-4.17-3.35l-3.4.65L372.87,87Z"/><path class="cls-5" d="M393.32,69.65l.55,2.83L387,73.81l1.94,10.08,8.49-1.64.56,2.87-11.65,2.25-5.46-28.32,11.66-2.25.55,2.88-8.5,1.63L386.4,71Z"/><path class="cls-4" d="M118.4,117.92v8H98.85v28.46h24v8.11H89.94v-80h32.92V90.6h-24v27.32Z"/><path class="cls-4" d="M150.57,117.36v2.17h-8.46V116.9c0-7.2-2.74-11.43-9.14-11.43s-9.14,4.23-9.14,11.32c0,17.94,26.86,19.65,26.86,42.17,0,12.12-5.83,20-18.06,20s-17.95-7.88-17.95-20v-4.57H123v5c0,7.2,3,11.43,9.37,11.43s9.37-4.23,9.37-11.43c0-17.83-26.74-19.55-26.74-42.06,0-12.35,5.71-20,17.71-20S150.57,105.24,150.57,117.36Z"/><path class="cls-1" d="M162.92,174.46V102.57H148.17V94.46h38.4v8.11H171.83v71.89Z"/><path class="cls-2" d="M190.06,158.05,187,174.16h-8.23l15.32-80H207l15.31,80h-8.91l-3.09-16.11Zm1.14-7.66H209l-9-46.17Zm20.12-72.23L200.8,89.93h-6.28l8-11.77Z"/><path class="cls-2" d="M265.45,113.47v6.86H257V113c0-7.2-2.86-11.55-9.38-11.55s-9.37,4.35-9.37,11.55v42.29c0,7.2,3,11.54,9.37,11.54s9.38-4.34,9.38-11.54v-16h-8.23v-8h16.68v23.55c0,12.11-5.71,20.11-18.06,20.11s-17.94-8-17.94-20.11V113.47c0-12.11,5.72-20.11,17.94-20.11S265.45,101.36,265.45,113.47Z"/><path class="cls-3" d="M287.09,80.4v80h-8.91v-80Z"/><path class="cls-5" d="M300.94,109.2c0-12.23,6.06-20.11,18.28-20.11S337.63,97,337.63,109.2v41.38c0,12.11-6.06,20.11-18.41,20.11s-18.28-8-18.28-20.11Zm8.8,41.84c0,7.31,3.08,11.54,9.48,11.54s9.49-4.23,9.49-11.54V108.75c0-7.2-3-11.55-9.49-11.55s-9.48,4.35-9.48,11.55Z"/><path class="cls-5" d="M378,116.35v2.17h-8.46V115.9c0-7.21-2.74-11.43-9.14-11.43s-9.14,4.22-9.14,11.31c0,17.95,26.86,19.66,26.86,42.18,0,12.11-5.83,20-18.06,20s-17.95-7.89-17.95-20v-4.58h8.35v5c0,7.2,3,11.43,9.37,11.43s9.37-4.23,9.37-11.43c0-17.83-26.74-19.54-26.74-42.06,0-12.34,5.71-20,17.71-20S378,104.24,378,116.35Z"/></g></g></svg>